<svg xmlns="http://www.w3.org/2000/svg" id="Layer_1" data-name="Layer 1" fill="currentColor" viewBox="0 0 712.74 811.1"><path d="M73,482.36c2.88-13.29,4.92-26.15,8.5-38.56,16-55.76,49.9-98.76,96.61-132.06,41.37-29.49,87.71-46.35,138-52.68a324,324,0,0,1,83.71.41,7.07,7.07,0,0,0,7.22-2.71c20.61-23.23,43.66-43.59,71.71-57.42a85.8,85.8,0,0,1,25.47-8c11.75-1.67,20.78,4.61,27.52,14,8.57,11.93,12.21,25.77,14.87,39.9,4.6,24.48,6,49.25,6.26,74.09a12.46,12.46,0,0,0,4.71,10.23c26.23,22.82,47,49.83,61.72,81.41,1.47,3.17,3.27,4,6.48,3.93,14.33-.14,28.67.32,43-.14,24.75-.8,43.71,19.18,43.82,43.43.15,31,.21,62,0,93-.18,25-20.18,44-43.53,43.2-14.47-.54-29,0-43.48-.19-3.39,0-4.94,1.16-6.33,4.15-14.64,31.41-35.35,58.28-61.42,81-2.85,2.48-3.83,4.74-3.18,8.5,4.94,28.54,9.6,57.12,14.49,85.66,2.38,13.89-3.37,22.64-17.22,25.25q-32.38,6.11-64.8,12c-10.55,1.91-19.45-4.81-21.35-16-3.06-18.05-6-36.11-9.09-54.17-.16-1-.51-1.89-.94-3.41a324.66,324.66,0,0,1-198.67-.1c-3.17,18.74-6.33,36.93-9.3,55.14-2.39,14.72-10.17,20.59-24.66,18q-31.93-5.77-63.81-11.85c-11.1-2.13-17.41-10.61-15.67-21.73,4-25.49,7.66-51.06,12.92-76.29,2.53-12.16.35-19.77-9.13-28.56C109.86,636.9,85.78,594,76.36,543.37c-1.1-5.89-1.51-11.9-2.66-17.77-.32-1.64-1.93-4-3.36-4.32-35.62-8.49-68-41.84-70.3-89.4-.63-13.19,6.63-22.52,17.64-22.73,9.4-.17,16.94,6.62,18.27,16.38.89,6.58,1.07,13.38,2.93,19.68C44.12,463,55.59,475.49,73,482.36ZM214.45,770c.45-1.73.88-3,1.1-4.27,3.09-18.38,6.21-36.76,9.21-55.16,2.43-15,13.07-21.11,27.3-15.51A277.66,277.66,0,0,0,338,714c42.81,2.5,84.36-3.47,124.33-19.48A22.5,22.5,0,0,1,472,693c9,.66,14.6,7,16.44,17.9,2.17,12.8,4.21,25.63,6.36,38.43,1.14,6.81,2.38,13.59,3.64,20.7l31.91-5.94a10,10,0,0,0,.14-1.88c-4.4-26.26-8.51-52.59-13.39-78.76-2.13-11.45.73-19.66,10-27,29.15-23.1,51.1-51.8,64.76-86.61,3.81-9.72,9.47-13.46,19.87-13.47q28.5,0,57,0c6,0,7.69-1.67,7.76-7.72.08-6.83,0-13.66,0-20.5V505.84c-13.8-2.85-19.79-9-19.77-19.71s5.93-16.59,19.26-19.52c1.87-11.71.26-13.67-11.23-13.67h-54c-8.75,0-15.08-3.88-18.27-12.1-14-36.17-37-65.66-67.18-89.7A21.24,21.24,0,0,1,517,333.8c-.07-6.49,0-13-.27-19.49-1-24.14-1.64-48.38-8-71.84-4.41-16.19-3.36-15.2-17.53-7.37-25.42,14-46.56,33.26-64.55,55.94-5.49,6.92-12.13,9.35-20.64,7.86a282.37,282.37,0,0,0-110.7,2.26c-56.83,12.64-105.84,39.11-142.73,84.9-39.7,49.28-53.47,105.06-36.7,166.84,11.71,43.12,37.17,77.39,71.83,105,7.29,5.81,10.36,12.75,8.83,21.82q-5.24,31-10.51,62c-1.23,7.32-2.36,14.65-3.58,22.25Z"></path><path d="M259.16,103.65c1.1-36.62,14.6-65.56,43.45-86.19C342-10.7,394.47-4.14,427.38,32.39c36.93,41,34.8,106.36-4.71,144.87-51.17,49.87-134.87,28.27-157.73-40.75A103.32,103.32,0,0,1,261,121.05C260,114.83,259.65,108.49,259.16,103.65Zm36.61-1.19c0,2.16-.11,4.33,0,6.49a41.07,41.07,0,0,0,.89,5.92C302,139,315.63,156.41,339.49,163.8c22.6,7,42.94,1.28,59.56-15.54,22.33-22.57,24.91-58.61,6.29-84.36-11.5-15.9-27.13-25-46.89-25.66C323.75,37.13,295.53,66.18,295.77,102.46Z"></path><path d="M354,328.42c26.76.28,50.38,3.67,73.27,11.43a18.89,18.89,0,0,1,13.08,18.66c-.36,8.83-5.76,16.18-14,17.89a21.28,21.28,0,0,1-10.24-.5q-59.7-18.73-119.27.11c-10.26,3.25-19.79-1.84-23-11.77s1.49-20.59,11.25-24.07a207.49,207.49,0,0,1,53.6-10.93C344.63,328.77,350.63,328.59,354,328.42Z"></path></svg>