<svg class="thebase-svg-icon thebase-account-svg" fill="currentColor" id="svg2" xmlns="http://www.w3.org/2000/svg" viewBox="0 0 356 356"><g id="g10"><g id="g12"><path id="path14" class="cls-1" d="M178,29.64a54.42,54.42,0,1,0,54.42,54.42A54.48,54.48,0,0,0,178,29.64Zm0,138.48a84.06,84.06,0,1,1,84.06-84.06A84.16,84.16,0,0,1,178,168.12h0"></path><path id="path16" class="cls-1" d="M30.37,326.35H325.63a149,149,0,0,0-43.67-92c-16.56-16.41-40.1-25.86-64.51-25.86h-78.9c-24.48,0-48,9.45-64.52,25.86A149,149,0,0,0,30.37,326.35ZM341.18,356H14.82A14.8,14.8,0,0,1,0,341.17,179,179,0,0,1,53.11,213.31c22.09-21.94,53.25-34.51,85.44-34.51h78.9c32.26,0,63.35,12.57,85.44,34.51A179,179,0,0,1,356,341.17,14.8,14.8,0,0,1,341.18,356h0"></path></g></g></svg>