<svg xmlns="http://www.w3.org/2000/svg" id="Capa_1" data-name="Capa 1" fill="currentColor" viewBox="0 0 512 512"><path d="M511.4,38.22A39.79,39.79,0,0,0,473.78.6c-41-2.24-121.34-.06-198.13,39.66C236.5,60.5,195.1,94.83,162.06,134.44l-1.2,1.47-75,5.79a39.56,39.56,0,0,0-30.16,17.75L4.56,236.82A27.43,27.43,0,0,0,23.24,279l63.17,9.78c-.23,1.23-.45,2.45-.66,3.68a39.78,39.78,0,0,0,11.16,34.6l88,88A39.84,39.84,0,0,0,213,426.78a39.11,39.11,0,0,0,6.46-.54c1.23-.2,2.45-.42,3.68-.65L233,488.76a27.4,27.4,0,0,0,42.22,18.68l77.37-51.16a39.58,39.58,0,0,0,17.75-30.16l5.79-75,1.47-1.2c39.61-33,73.94-74.44,94.18-113.59,39.72-76.79,41.9-157.09,39.66-198.13ZM336,431.26l-74,48.93-9.53-61.56c31.28-9.2,62.22-23.93,91.7-43.66l-3.77,48.84a9.82,9.82,0,0,1-4.38,7.45Zm-129.9-37.38-88-88a9.71,9.71,0,0,1-2.78-8.44,257.55,257.55,0,0,1,11.72-44.56l132,132a258.82,258.82,0,0,1-44.53,11.75,9.74,9.74,0,0,1-8.44-2.78ZM88.19,171.61,137,167.84c-19.73,29.48-34.46,60.42-43.66,91.7L31.81,250l48.93-74A9.79,9.79,0,0,1,88.19,171.61ZM358.34,326.9a343.78,343.78,0,0,1-69.44,45.41L139.68,223.09a350,350,0,0,1,45.42-69.43C215.68,117,253.7,85.38,289.43,66.9c70.48-36.45,144.73-38.41,182.71-36.35a9.86,9.86,0,0,1,9.31,9.31c2.07,38,.1,112.23-36.35,182.71C426.62,258.3,395,296.32,358.34,326.9Z" transform="translate(0 0)"></path><path d="M350.72,236.24a74.94,74.94,0,1,0-53-21.93,74.77,74.77,0,0,0,53,21.93ZM318.9,129.46a45,45,0,1,1-13.18,31.82A44.87,44.87,0,0,1,318.9,129.46Z" transform="translate(0 0)"></path><path d="M15.3,421.94a15,15,0,0,0,10.61-4.4l49-49a15,15,0,0,0-21.21-21.21l-49,49A15,15,0,0,0,15.3,421.94Z" transform="translate(0 0)"></path><path d="M119.76,392.24a15,15,0,0,0-21.21,0L4.39,486.39a15,15,0,0,0,21.22,21.22l94.15-94.16a15,15,0,0,0,0-21.21Z" transform="translate(0 0)"></path><path d="M143.43,437.12l-49,49a15,15,0,0,0,21.21,21.22l49-49a15,15,0,0,0-21.21-21.21Z" transform="translate(0 0)"></path></svg>