<svg xmlns="http://www.w3.org/2000/svg" id="Layer_1" data-name="Layer 1" viewBox="0 0 752.54 574.04"><path d="M0,12.85C4.38,2.8,12.26,0,22.84,0Q244.08.32,465.3.14c15.2,0,21.22,6,21.22,21.14q0,183.74,0,367.46c0,6.24-.92,11.93-5.92,16.29-3.91,3.43-8.53,4.06-13.5,4.06q-97.24-.07-194.48,0h-6.52l11,34.66h4.7q94.49,0,189,.08c4,0,5.67-.81,6.48-5.17,9.79-52.69,57.07-91.69,110.79-91.69S689,385.79,699,438.5c.3,1.62.73,3.22,1.13,4.94h18c.1-2,.26-3.8.26-5.57q0-80-.08-160a22.35,22.35,0,0,0-2-9.06C700.94,235.4,685.38,202.08,670,168.65c-1.66-3.62-3.55-5-7.73-5-46.66.18-93.32.13-140,.11-10.32,0-17.66-6.14-18.39-15.23-.83-10.48,6.33-18.62,16.85-18.63q78.74-.12,157.48,0c8.19,0,13.16,4.54,16.44,11.64,14.66,31.73,28.66,63.78,44.36,95a123.93,123.93,0,0,1,13.42,60.76c-1.12,45-.53,90-.28,135,.26,47,2.51,46.12-45.34,45.49-2.14,0-4.29,0-6.69,0-.9,4-1.62,7.73-2.58,11.39C684.05,541,637.38,575.69,583.47,574c-51.86-1.65-96.41-40.14-106.38-92-.53-2.77-1.07-4.37-4.56-4.36q-97,.18-194,.1c-.65,0-1.3.12-2.22.22-1.06,4.35-2,8.7-3.17,13-14.38,51.75-61,85.2-115.47,83-50.52-2.06-94.62-40.73-104.42-91.85-.71-3.74-2.1-4.51-5.49-4.43-8.33.21-16.69-.34-25,.17-10.64.65-18.44-2.9-22.79-12.94v-8c3.83-10.1,11.19-14,21.84-13.24,7.94.55,16-.26,23.92.24,5.22.33,6.86-1.41,8-6.47,2.16-9.44,5.56-18.59,8.58-28.32H57.67c-12,0-24-.43-35.9.12-10.62.5-18-3.14-21.77-13.33ZM452.78,375.07v-5.8q0-164.73.11-329.44c0-4.73-1.47-5.78-5.93-5.77q-203.71.15-407.43.09c-1.77,0-3.54.15-5.3.23V375.05c18.27,0,36.24.05,54.2-.1,1.42,0,3-1.27,4.23-2.26,42.51-34.17,99.65-34.35,142.58-.62a14.75,14.75,0,0,0,8.48,2.88q101.48.24,203,.12Zm214.47,85.57c0-44-35.47-79.75-79.2-79.74s-79.17,35.85-79.15,79.87a79.18,79.18,0,1,0,158.35-.13Zm-423.81.2c.13-43.95-35.39-79.86-79.06-79.94C121,380.82,85.17,416.52,85,460.08c-.18,44.05,35.1,79.84,78.88,80A79.22,79.22,0,0,0,243.44,460.84Z"></path><path d="M598,286.49q-33.48,0-66.95,0c-13.41,0-20-6.53-20-19.85q0-29.48,0-58.95c0-12.49,6.57-19.17,19.09-19.2,35.3-.07,70.61.05,105.92-.07,9,0,15,3.79,18.78,12,9.15,20.14,18.58,40.15,27.86,60.22,6.26,13.53-1.39,25.75-16.26,25.8C643.67,286.55,620.85,286.49,598,286.49Zm43.32-34.38c-4.05-8.8-8-17-11.59-25.32-1.36-3.14-3.07-4.42-6.67-4.39-24.48.17-49,.08-73.44.1-1.44,0-2.87.22-4.41.35v29.26Z"></path></svg>