<svg xmlns="http://www.w3.org/2000/svg" id="Layer_1" data-name="Layer 1" fill="currentColor" viewBox="0 0 633.56 653.6"><path d="M369.2,616.53c-2.78,8.14-4.58,15.48-7.74,22.17-4.73,10-12.8,15.15-24.4,14.89-16.82-.37-33.66,0-50.5-.11-26.77-.11-48.47-20.56-50.58-47.58-2.07-26.61,16.19-50.52,42.08-55a57.5,57.5,0,0,1,9.47-.58c16.83-.06,33.67.17,50.5-.11,10.31-.16,18,4.25,22.4,13.06,3.24,6.44,5.08,13.64,7.08,20.63.68,2.39,1.43,3.34,3.88,3.32,35-.28,70.1,1.19,105-1.2,40.36-2.77,74.15-20.4,98.08-54.22,9.64-13.61,15.46-29,15.92-45.62.65-23.3.16-46.63.16-70.32-5.2,2.47-10,5.81-15.3,7-7,1.59-9.84,5.49-12.35,11.93C552.55,461.25,526,475.63,499,470.3c-26.07-5.15-45.95-29.42-46.08-56.75q-.26-54,0-108c.23-43.43,44.55-72.14,83.11-52.27.7.37,1.45.66,3.3,1.49-4-78.92-35-143.13-100.39-186.81C363.52,17.58,283.71,14.9,205.58,61c-72.4,42.74-106.72,109.78-111.4,192.75,8-2.26,15.19-5.26,22.61-6.19,30-3.76,57.11,16.21,62.94,45.94A77,77,0,0,1,181,307.92c.11,34.17.06,68.33,0,102.5,0,23.8-9.69,42.39-30.63,54.05-31.49,17.55-70.13,1-81.29-34.62-.93-3-2.27-4.24-5.13-5.06-24-6.89-39.37-22.73-46.82-46.35-1-3.05-1.86-4.66-5.43-5.06C5.06,372.64.09,366.24,0,359.28s5-13.65,12-14.48c3.32-.4,4.24-1.69,5.14-4.64,7-22.92,21.71-38.63,44.65-46,3.78-1.22,4.26-3,4.33-6.36.42-19.31-.43-38.8,1.87-57.9C78.51,142.2,121.39,74.62,198.48,31.18,312-32.79,454.2,4.71,525.68,115.87c28.14,43.77,41.65,91.84,41.88,143.76.05,9.67.09,19.34,0,29,0,2.85.6,4.28,3.71,5.27,23.36,7.45,38.31,23.3,45.31,46.65.86,2.85,1.92,3.86,4.94,4.22,6.67.81,11.49,6.55,12,13.41.52,6.55-3.72,13.48-10.18,14.86-4.14.88-4.34,2.93-4.33,6.2.07,31.84-.38,63.68.14,95.51.76,47.11-19.84,83-57,110.19-28.55,20.88-61.1,30.81-96.3,31.42-30.49.52-61,.14-91.5.16ZM66.55,323.8c-15.51,5.59-25.7,23.51-23.39,39.85,2.64,18.63,16.72,32.65,34,33.88,13.24.94,16.37,3.94,17.84,17.08,1.84,16.34,14.3,27.85,29.59,27.31a28.74,28.74,0,0,0,27.93-28.46c.35-36.15.43-72.32,0-108.48-.25-20.06-19.83-33.55-38-27.11C102.59,282.08,95,293.13,94.91,307c-.14,18.5,0,37-.11,55.5a14,14,0,0,1-27.46,4.15,29.29,29.29,0,0,1-.75-7.9C66.51,347.28,66.55,335.81,66.55,323.8Zm501.22.44c-.08,1.23-.19,2-.19,2.86,0,11.32.12,22.66-.06,34-.14,9.58-6.55,15.89-15.23,15.41-7.66-.41-13.28-6.7-13.32-15.28-.11-18.83.14-37.66-.14-56.48a28.8,28.8,0,0,0-28.41-28.38c-16.46-.1-28.91,12.81-29,30.37-.09,32.32,0,64.64,0,97,0,4.16-.12,8.34.27,12.48,1.23,13.1,12.1,24.16,24.85,25.54,17.27,1.86,31.51-10.59,32.33-28.28.45-9.58,5.69-15.27,14.55-15.79,20.62-1.22,34.93-14.9,37.15-35.5C592.26,346.57,581.93,329.07,567.77,324.24ZM309.31,624.14c7.82,0,15.65-.14,23.47.06,3.22.08,4.81-1,5.55-4.16a78.43,78.43,0,0,0-.06-36.56c-.79-3.29-2.48-4.05-5.62-4-15,.14-30,0-44.94.08-13.57.06-23.12,9.24-23.21,22.13-.08,13.16,9.42,22.33,23.34,22.45C295,624.19,302.15,624.13,309.31,624.14Z"></path></svg>